<svg width="1024" height="1024" viewBox="0 0 1024 1024" fill="none" xmlns="http://www.w3.org/2000/svg">
<g clip-path="url(#clip0_17_199)">
<path d="M203.078 341.016C202.979 341.312 202.361 341.288 201.223 340.941C200.085 340.595 198.526 340.026 196.547 339.234L193.578 337.898C189.224 335.919 184.919 333.495 180.664 330.625C179.971 330.13 177.943 328.572 174.578 325.949C171.214 323.327 169.333 321.917 168.938 321.719C162.307 331.911 155.677 340.867 149.047 348.586C141.031 357.987 135.836 363.43 133.461 364.914C133.065 365.112 132.1 365.31 130.566 365.508C129.033 365.706 128.117 365.706 127.82 365.508C128.414 365.112 132.471 360.56 139.992 351.852C142.07 349.477 146.301 343.786 152.684 334.781C159.066 325.776 162.951 319.938 164.336 317.266C166.018 314.297 168.542 309.423 171.906 302.645C175.271 295.866 177.052 292.031 177.25 291.141C176.458 291.042 171.016 292.674 160.922 296.039C160.13 296.237 158.77 296.608 156.84 297.152C154.91 297.697 153.203 298.167 151.719 298.562C150.234 298.958 149.393 299.206 149.195 299.305C148.997 299.503 148.898 300.022 148.898 300.863C148.898 301.704 148.849 302.174 148.75 302.273C148.255 303.263 146.721 304.005 144.148 304.5C141.872 305.193 139.547 305.193 137.172 304.5C135.391 304.104 134.005 303.065 133.016 301.383C132.62 300.789 132.372 299.651 132.273 297.969C132.867 297.771 134.079 297.523 135.91 297.227C137.741 296.93 139.201 296.633 140.289 296.336C146.029 294.753 151.224 293.169 155.875 291.586C165.771 288.122 170.818 286.391 171.016 286.391C172.005 286.193 174.133 285.228 177.398 283.496C180.664 281.764 182.841 280.701 183.93 280.305C184.82 280.008 185.884 279.612 187.121 279.117C188.358 278.622 189.076 278.35 189.273 278.301C189.471 278.251 189.768 278.276 190.164 278.375C190.362 279.562 190.312 281.195 190.016 283.273C190.016 283.471 189.397 284.807 188.16 287.281C186.923 289.755 185.612 292.402 184.227 295.223C182.841 298.043 182 299.701 181.703 300.195C179.229 305.143 175.419 311.625 170.273 319.641L179.773 323.797C180.961 324.391 184.647 325.974 190.832 328.547C197.017 331.12 200.357 332.505 200.852 332.703C201.247 332.802 201.767 334.064 202.41 336.488C203.053 338.913 203.276 340.422 203.078 341.016ZM172.648 268.875C172.945 270.359 172.747 271.745 172.055 273.031C170.867 275.307 168.393 277.188 164.633 278.672C161.664 279.859 158.695 280.453 155.727 280.453C153.154 280.156 150.729 278.87 148.453 276.594C147.068 275.109 146.177 273.081 145.781 270.508L145.93 270.062C146.227 270.359 147.191 270.607 148.824 270.805C150.457 271.003 151.768 271.003 152.758 270.805C153.747 270.607 156.617 269.815 161.367 268.43C164.93 267.242 167.651 266.549 169.531 266.352C171.214 266.352 172.253 267.193 172.648 268.875ZM276.258 288.023L285.609 321.719L264.977 315.484L276.258 288.023ZM111.789 406.773L214.805 372.336V219.148L111.789 253.734V406.773ZM296 359.719L311.141 364.32L284.273 266.797L269.43 262.195L237.367 341.758L252.508 346.359L259.188 330.031L290.508 339.68L296 359.719ZM221.336 216.922L306.391 244.234V187.828L221.336 216.922ZM267.5 413.305L290.953 415.234L282.938 438.984L277 429.188C264.135 437.401 250.479 442.745 236.031 445.219C230.292 446.406 225.789 447 222.523 447H210.055C202.237 447 192.366 445.07 180.441 441.211C168.517 437.352 159.438 433.146 153.203 428.594C152.411 427.901 152.016 427.109 152.016 426.219C152.016 425.427 152.263 424.759 152.758 424.215C153.253 423.671 153.896 423.398 154.688 423.398C155.083 423.398 155.974 423.77 157.359 424.512C158.745 425.254 160.254 426.07 161.887 426.961C163.52 427.852 164.534 428.396 164.93 428.594C172.154 432.255 180.046 435.298 188.605 437.723C197.165 440.147 204.958 441.359 211.984 441.359C221.385 441.359 229.648 440.642 236.773 439.207C243.898 437.772 251.667 435.273 260.078 431.711C261.562 431.018 263.072 430.251 264.605 429.41C266.139 428.569 267.822 427.629 269.652 426.59C271.483 425.551 272.893 424.734 273.883 424.141L267.5 413.305ZM334 253.141V413.305L219.109 376.789C217.724 377.383 199.169 383.691 163.445 395.715C127.721 407.738 109.513 413.75 108.82 413.75C107.534 413.75 106.643 413.107 106.148 411.82C106.148 411.721 106.099 411.573 106 411.375V251.359C106.297 250.469 106.495 249.974 106.594 249.875C107.089 249.281 108.078 248.737 109.562 248.242C120.151 244.68 127.523 242.206 131.68 240.82V183.82L214.508 213.211C214.706 213.211 222.647 210.49 238.332 205.047C254.017 199.604 269.652 194.236 285.238 188.941C300.824 183.647 308.815 181 309.211 181C311.19 181 312.18 182.039 312.18 184.117V246.164L334 253.141Z" fill="url(#paint0_linear_17_199)"/>
</g>
<path d="M808.533 344.163C802.544 344.163 799.081 349.851 799.081 357.438C799.081 365.094 802.683 370.48 808.579 370.48C814.568 370.48 817.985 364.805 817.985 357.206C817.985 350.21 814.614 344.163 808.533 344.163Z" fill="#BB0A2B"/>
<path d="M822.167 192.167H729.5C723.356 192.167 717.463 194.607 713.119 198.952C708.774 203.297 706.333 209.189 706.333 215.333V400.667C706.333 406.811 708.774 412.703 713.119 417.048C717.463 421.393 723.356 423.833 729.5 423.833H868.5C874.644 423.833 880.537 421.393 884.881 417.048C889.226 412.703 891.667 406.811 891.667 400.667V261.667L822.167 192.167ZM752.922 362.488C752.922 373.62 747.582 377.5 739.022 377.5C736.983 377.5 734.319 377.164 732.57 376.573L733.566 369.45C734.771 369.855 736.334 370.145 738.095 370.145C741.79 370.145 744.118 368.465 744.118 362.384V337.804H752.933L752.922 362.488ZM769.822 377.442C765.362 377.442 760.949 376.284 758.76 375.068L760.555 367.758C762.918 368.975 766.59 370.203 770.355 370.203C774.409 370.203 776.54 368.511 776.54 365.975C776.54 363.531 774.698 362.141 770.007 360.461C763.497 358.202 759.269 354.6 759.269 348.924C759.269 342.252 764.841 337.144 774.061 337.144C778.463 337.144 781.695 338.07 784.034 339.124L782.042 346.248C780.478 345.495 777.698 344.395 773.876 344.395C770.053 344.395 768.188 346.132 768.188 348.159C768.188 350.65 770.389 351.762 775.451 353.673C782.355 356.221 785.598 359.812 785.598 365.326C785.61 371.882 780.548 377.442 769.822 377.442ZM808.116 377.5C796.521 377.5 789.745 368.755 789.745 357.623C789.745 345.901 797.228 337.144 808.765 337.144C820.754 337.144 827.31 346.132 827.31 356.916C827.298 369.739 819.537 377.5 808.116 377.5ZM865.419 376.863H856.129L847.778 361.781C845.279 357.308 843.017 352.707 841.001 347.997L840.816 348.055C841.059 353.21 841.175 358.723 841.175 365.106V376.875H833.055V337.804H843.376L851.496 352.121C853.812 356.221 856.129 361.098 857.89 365.5H858.052C857.473 360.345 857.299 355.075 857.299 349.214V337.804H865.431V376.863H865.419ZM822.167 273.25H810.583V215.333L868.5 273.25H822.167Z" fill="url(#paint1_linear_17_199)"/>
<path d="M218 811V706H236.3V792.7H280.025V811H218ZM323.363 812.95C316.463 812.95 310.163 811.175 304.463 807.625C298.813 804.075 294.288 799.325 290.888 793.375C287.538 787.375 285.863 780.75 285.863 773.5C285.863 768 286.838 762.875 288.788 758.125C290.738 753.325 293.413 749.125 296.813 745.525C300.263 741.875 304.263 739.025 308.813 736.975C313.363 734.925 318.213 733.9 323.363 733.9C330.263 733.9 336.538 735.675 342.188 739.225C347.888 742.775 352.413 747.55 355.763 753.55C359.163 759.55 360.863 766.2 360.863 773.5C360.863 778.95 359.888 784.05 357.938 788.8C355.988 793.55 353.288 797.75 349.838 801.4C346.438 805 342.463 807.825 337.913 809.875C333.413 811.925 328.563 812.95 323.363 812.95ZM323.363 794.65C327.013 794.65 330.288 793.675 333.188 791.725C336.088 789.775 338.363 787.2 340.013 784C341.713 780.8 342.563 777.3 342.563 773.5C342.563 769.6 341.688 766.05 339.938 762.85C338.238 759.6 335.913 757.025 332.963 755.125C330.063 753.175 326.863 752.2 323.363 752.2C319.763 752.2 316.513 753.175 313.613 755.125C310.713 757.075 308.413 759.675 306.713 762.925C305.013 766.175 304.163 769.7 304.163 773.5C304.163 777.45 305.038 781.025 306.788 784.225C308.538 787.425 310.863 789.975 313.763 791.875C316.713 793.725 319.913 794.65 323.363 794.65ZM419.334 788.425L435.834 797.35C432.384 802.05 428.059 805.825 422.859 808.675C417.659 811.525 411.984 812.95 405.834 812.95C398.934 812.95 392.634 811.175 386.934 807.625C381.284 804.075 376.759 799.325 373.359 793.375C370.009 787.375 368.334 780.75 368.334 773.5C368.334 768 369.309 762.875 371.259 758.125C373.209 753.325 375.884 749.125 379.284 745.525C382.734 741.875 386.734 739.025 391.284 736.975C395.834 734.925 400.684 733.9 405.834 733.9C411.984 733.9 417.659 735.325 422.859 738.175C428.059 741.025 432.384 744.85 435.834 749.65L419.334 758.5C417.584 756.5 415.509 754.95 413.109 753.85C410.759 752.75 408.334 752.2 405.834 752.2C402.234 752.2 398.984 753.2 396.084 755.2C393.184 757.15 390.884 759.75 389.184 763C387.484 766.2 386.634 769.7 386.634 773.5C386.634 777.25 387.484 780.75 389.184 784C390.884 787.2 393.184 789.775 396.084 791.725C398.984 793.675 402.234 794.65 405.834 794.65C408.434 794.65 410.909 794.1 413.259 793C415.609 791.85 417.634 790.325 419.334 788.425ZM503.505 736H521.805V811H503.505L502.68 801.7C500.63 805.05 497.905 807.775 494.505 809.875C491.155 811.925 487.18 812.95 482.58 812.95C477.03 812.95 471.83 811.9 466.98 809.8C462.13 807.7 457.855 804.8 454.155 801.1C450.505 797.4 447.63 793.125 445.53 788.275C443.48 783.425 442.455 778.225 442.455 772.675C442.455 767.325 443.43 762.3 445.38 757.6C447.38 752.9 450.155 748.775 453.705 745.225C457.255 741.675 461.355 738.9 466.005 736.9C470.655 734.9 475.655 733.9 481.005 733.9C485.955 733.9 490.38 735 494.28 737.2C498.23 739.4 501.58 742.2 504.33 745.6L503.505 736ZM482.13 795.325C486.03 795.325 489.48 794.35 492.48 792.4C495.48 790.45 497.83 787.825 499.53 784.525C501.23 781.175 502.08 777.5 502.08 773.5C502.08 769.45 501.23 765.775 499.53 762.475C497.83 759.125 495.455 756.475 492.405 754.525C489.405 752.575 485.98 751.6 482.13 751.6C478.28 751.6 474.755 752.6 471.555 754.6C468.405 756.55 465.88 759.175 463.98 762.475C462.13 765.775 461.205 769.45 461.205 773.5C461.205 777.55 462.155 781.225 464.055 784.525C465.955 787.825 468.48 790.45 471.63 792.4C474.83 794.35 478.33 795.325 482.13 795.325ZM537.189 811V698.5H555.489V811H537.189ZM573.518 736H591.818V811H573.518V736ZM582.818 726.325C580.118 726.325 577.843 725.45 575.993 723.7C574.143 721.9 573.218 719.65 573.218 716.95C573.218 714.3 574.143 712.075 575.993 710.275C577.843 708.475 580.093 707.575 582.743 707.575C585.393 707.575 587.618 708.475 589.418 710.275C591.268 712.075 592.193 714.3 592.193 716.95C592.193 719.65 591.293 721.9 589.493 723.7C587.693 725.45 585.468 726.325 582.818 726.325ZM670.896 754.3L633.171 792.7H670.896V811H606.846V792.7L644.571 754.3H606.846V736H670.896V754.3ZM717.113 812.95C710.213 812.95 703.913 811.175 698.213 807.625C692.563 804.075 688.038 799.3 684.638 793.3C681.288 787.3 679.613 780.675 679.613 773.425C679.613 767.975 680.588 762.875 682.538 758.125C684.488 753.325 687.163 749.125 690.563 745.525C694.013 741.875 698.013 739.025 702.563 736.975C707.113 734.925 711.963 733.9 717.113 733.9C722.963 733.9 728.313 735.15 733.163 737.65C738.063 740.1 742.213 743.475 745.613 747.775C749.013 752.075 751.488 756.975 753.038 762.475C754.588 767.975 754.938 773.725 754.088 779.725H699.263C699.963 782.525 701.113 785.05 702.713 787.3C704.313 789.5 706.338 791.275 708.788 792.625C711.238 793.925 714.013 794.6 717.113 794.65C720.313 794.7 723.213 793.95 725.813 792.4C728.463 790.8 730.663 788.65 732.413 785.95L751.088 790.3C748.038 796.95 743.488 802.4 737.438 806.65C731.388 810.85 724.613 812.95 717.113 812.95ZM698.663 766H735.563C735.013 763 733.838 760.3 732.038 757.9C730.288 755.45 728.113 753.5 725.513 752.05C722.913 750.6 720.113 749.875 717.113 749.875C714.113 749.875 711.338 750.6 708.788 752.05C706.238 753.45 704.063 755.375 702.263 757.825C700.513 760.225 699.313 762.95 698.663 766ZM766.366 811L766.291 736H784.591L784.666 742.675C787.216 739.975 790.266 737.85 793.816 736.3C797.366 734.7 801.191 733.9 805.291 733.9C808.041 733.9 810.791 734.3 813.541 735.1L806.341 753.55C804.441 752.8 802.541 752.425 800.641 752.425C797.691 752.425 794.991 753.15 792.541 754.6C790.141 756 788.216 757.925 786.766 760.375C785.366 762.775 784.666 765.45 784.666 768.4V811H766.366Z" fill="url(#paint2_linear_17_199)"/>
<path d="M234.1 563H255.175L293.35 668H273.925L267.175 649.4H222.175L215.425 668H196L234.1 563ZM228.85 631.1H260.425L244.6 587.825L228.85 631.1ZM299.711 640.25V593H318.011V635.45C318.011 638.4 318.736 641.1 320.186 643.55C321.636 645.95 323.561 647.875 325.961 649.325C328.411 650.725 331.086 651.425 333.986 651.425C336.986 651.425 339.686 650.725 342.086 649.325C344.486 647.875 346.411 645.95 347.861 643.55C349.311 641.1 350.036 638.4 350.036 635.45V593H368.336L368.411 668H350.111L350.036 661.175C347.436 663.875 344.361 666.025 340.811 667.625C337.261 669.175 333.461 669.95 329.411 669.95C323.961 669.95 318.986 668.625 314.486 665.975C309.986 663.275 306.386 659.7 303.686 655.25C301.036 650.75 299.711 645.75 299.711 640.25ZM423.624 611.3H409.074V668H390.774V611.3H379.674V593H390.774V569.45H409.074V593H423.624V611.3ZM468.426 669.95C461.526 669.95 455.226 668.175 449.526 664.625C443.876 661.075 439.351 656.325 435.951 650.375C432.601 644.375 430.926 637.75 430.926 630.5C430.926 625 431.901 619.875 433.851 615.125C435.801 610.325 438.476 606.125 441.876 602.525C445.326 598.875 449.326 596.025 453.876 593.975C458.426 591.925 463.276 590.9 468.426 590.9C475.326 590.9 481.601 592.675 487.251 596.225C492.951 599.775 497.476 604.55 500.826 610.55C504.226 616.55 505.926 623.2 505.926 630.5C505.926 635.95 504.951 641.05 503.001 645.8C501.051 650.55 498.351 654.75 494.901 658.4C491.501 662 487.526 664.825 482.976 666.875C478.476 668.925 473.626 669.95 468.426 669.95ZM468.426 651.65C472.076 651.65 475.351 650.675 478.251 648.725C481.151 646.775 483.426 644.2 485.076 641C486.776 637.8 487.626 634.3 487.626 630.5C487.626 626.6 486.751 623.05 485.001 619.85C483.301 616.6 480.976 614.025 478.026 612.125C475.126 610.175 471.926 609.2 468.426 609.2C464.826 609.2 461.576 610.175 458.676 612.125C455.776 614.075 453.476 616.675 451.776 619.925C450.076 623.175 449.226 626.7 449.226 630.5C449.226 634.45 450.101 638.025 451.851 641.225C453.601 644.425 455.926 646.975 458.826 648.875C461.776 650.725 464.976 651.65 468.426 651.65ZM555.396 668V563H617.421V581.3H573.696V602.6H610.221V620.9H573.696V668H555.396ZM623.951 593H642.251V668H623.951V593ZM633.251 583.325C630.551 583.325 628.276 582.45 626.426 580.7C624.576 578.9 623.651 576.65 623.651 573.95C623.651 571.3 624.576 569.075 626.426 567.275C628.276 565.475 630.526 564.575 633.176 564.575C635.826 564.575 638.051 565.475 639.851 567.275C641.701 569.075 642.626 571.3 642.626 573.95C642.626 576.65 641.726 578.9 639.926 580.7C638.126 582.45 635.901 583.325 633.251 583.325ZM660.572 668V555.5H678.872V668H660.572ZM728.729 669.95C721.829 669.95 715.529 668.175 709.829 664.625C704.179 661.075 699.654 656.3 696.254 650.3C692.904 644.3 691.229 637.675 691.229 630.425C691.229 624.975 692.204 619.875 694.154 615.125C696.104 610.325 698.779 606.125 702.179 602.525C705.629 598.875 709.629 596.025 714.179 593.975C718.729 591.925 723.579 590.9 728.729 590.9C734.579 590.9 739.929 592.15 744.779 594.65C749.679 597.1 753.829 600.475 757.229 604.775C760.629 609.075 763.104 613.975 764.654 619.475C766.204 624.975 766.554 630.725 765.704 636.725H710.879C711.579 639.525 712.729 642.05 714.329 644.3C715.929 646.5 717.954 648.275 720.404 649.625C722.854 650.925 725.629 651.6 728.729 651.65C731.929 651.7 734.829 650.95 737.429 649.4C740.079 647.8 742.279 645.65 744.029 642.95L762.704 647.3C759.654 653.95 755.104 659.4 749.054 663.65C743.004 667.85 736.229 669.95 728.729 669.95ZM710.279 623H747.179C746.629 620 745.454 617.3 743.654 614.9C741.904 612.45 739.729 610.5 737.129 609.05C734.529 607.6 731.729 606.875 728.729 606.875C725.729 606.875 722.954 607.6 720.404 609.05C717.854 610.45 715.679 612.375 713.879 614.825C712.129 617.225 710.929 619.95 710.279 623ZM800.617 669.35C796.717 669.1 792.942 668.325 789.292 667.025C785.692 665.675 782.492 663.85 779.692 661.55C776.892 659.25 774.742 656.5 773.242 653.3L788.692 646.7C789.292 647.7 790.267 648.775 791.617 649.925C792.967 651.025 794.567 651.95 796.417 652.7C798.317 653.45 800.392 653.825 802.642 653.825C804.542 653.825 806.342 653.575 808.042 653.075C809.792 652.525 811.192 651.7 812.242 650.6C813.342 649.5 813.892 648.075 813.892 646.325C813.892 644.475 813.242 643.05 811.942 642.05C810.692 641 809.092 640.225 807.142 639.725C805.242 639.175 803.392 638.675 801.592 638.225C796.842 637.275 792.417 635.8 788.317 633.8C784.267 631.8 780.992 629.225 778.492 626.075C776.042 622.875 774.817 619.025 774.817 614.525C774.817 609.575 776.117 605.3 778.717 601.7C781.367 598.1 784.792 595.325 788.992 593.375C793.242 591.425 797.817 590.45 802.717 590.45C808.667 590.45 814.117 591.7 819.067 594.2C824.067 596.65 828.017 600.125 830.917 604.625L816.442 613.175C815.742 611.975 814.767 610.875 813.517 609.875C812.267 608.825 810.842 607.975 809.242 607.325C807.642 606.625 805.967 606.225 804.217 606.125C801.967 606.025 799.917 606.225 798.067 606.725C796.217 607.225 794.717 608.075 793.567 609.275C792.467 610.475 791.917 612.075 791.917 614.075C791.917 615.975 792.667 617.4 794.167 618.35C795.667 619.25 797.467 619.95 799.567 620.45C801.717 620.95 803.767 621.5 805.717 622.1C810.117 623.55 814.242 625.325 818.092 627.425C821.992 629.525 825.117 632.1 827.467 635.15C829.817 638.2 830.942 641.85 830.842 646.1C830.842 650.95 829.392 655.2 826.492 658.85C823.592 662.45 819.842 665.2 815.242 667.1C810.692 669 805.817 669.75 800.617 669.35Z" fill="url(#paint3_linear_17_199)"/>
<path d="M665 314L595 273.585V354.415L665 314ZM376 321H602V307H376V321Z" fill="url(#paint4_linear_17_199)"/>
<defs>
<linearGradient id="paint0_linear_17_199" x1="220" y1="181" x2="220" y2="447" gradientUnits="userSpaceOnUse">
<stop stop-color="#73021F"/>
<stop offset="0.430208" stop-color="#AD062D"/>
<stop offset="0.9875" stop-color="#C70E2A"/>
</linearGradient>
<linearGradient id="paint1_linear_17_199" x1="799" y1="192.167" x2="799" y2="423.833" gradientUnits="userSpaceOnUse">
<stop stop-color="#73021F"/>
<stop offset="0.430208" stop-color="#AD062D"/>
<stop offset="0.9875" stop-color="#C70E2A"/>
</linearGradient>
<linearGradient id="paint2_linear_17_199" x1="513.35" y1="716.75" x2="513.35" y2="810.5" gradientUnits="userSpaceOnUse">
<stop stop-color="#F62C4A"/>
<stop offset="0.555208" stop-color="#F76136"/>
<stop offset="0.9875" stop-color="#FB8032"/>
</linearGradient>
<linearGradient id="paint3_linear_17_199" x1="512.5" y1="572.368" x2="512.5" y2="667.895" gradientUnits="userSpaceOnUse">
<stop stop-color="#C70E2A"/>
<stop offset="0.440625" stop-color="#C70E2A"/>
<stop offset="1" stop-color="#F62C4A"/>
</linearGradient>
<linearGradient id="paint4_linear_17_199" x1="498" y1="257" x2="498" y2="356.5" gradientUnits="userSpaceOnUse">
<stop stop-color="#7B0321"/>
<stop offset="1" stop-color="#BE0B2B"/>
</linearGradient>
<clipPath id="clip0_17_199">
<rect width="228" height="266" fill="white" transform="translate(106 181)"/>
</clipPath>
</defs>
</svg>
